<svg width="600" height="132" viewBox="0 0 600 132" fill="none" xmlns="http://www.w3.org/2000/svg">
<path d="M14.1365 51.7915C11.4433 51.7915 8.7725 51.3202 6.12416 50.3775C3.47583 49.4349 1.56813 48.3801 0.401071 47.213L3.96959 40.8166C4.91222 41.6694 6.37104 42.5672 8.34607 43.5098C10.366 44.4076 12.2961 44.8564 14.1365 44.8564C16.5155 44.8564 18.4456 44.2953 19.9269 43.1732C21.4531 42.051 22.2162 40.5024 22.2162 38.5274C22.2162 37.0012 21.8122 35.677 21.0042 34.5549C20.1962 33.4327 19.2087 32.5125 18.0417 31.7943C16.8746 31.0312 15.2138 30.111 13.0592 29.0338C10.5006 27.7769 8.75005 26.8343 7.80743 26.2059C3.45339 23.2882 1.27637 19.2484 1.27637 14.0864C1.27637 9.82212 2.69031 6.56781 5.51819 4.32346C8.34607 2.03422 11.9146 0.889604 16.2237 0.889604C20.8471 0.889604 24.7747 2.21377 28.0066 4.8621L24.4381 10.9892C23.5852 10.0914 22.3733 9.32836 20.8022 8.69994C19.2761 8.02664 17.6377 7.68999 15.8871 7.68999C13.6427 7.68999 11.8697 8.20619 10.568 9.23859C9.31114 10.2261 8.68272 11.7074 8.68272 13.6824C8.68272 15.0739 9.08671 16.3307 9.89467 17.4529C10.7026 18.5302 11.7126 19.4728 12.9245 20.2808C14.1814 21.0888 15.8646 22.0763 17.9743 23.2433C19.9942 24.3655 21.5429 25.2632 22.6201 25.9366C23.6974 26.565 24.7074 27.3281 25.65 28.2258C26.9517 29.3929 28.0066 30.7844 28.8145 32.4003C29.6225 34.0162 30.0265 35.7893 30.0265 37.7194C30.0265 40.7268 29.3307 43.2854 27.9392 45.3951C26.5926 47.5048 24.7074 49.0982 22.2835 50.1755C19.9045 51.2528 17.1888 51.7915 14.1365 51.7915ZM40.3544 26.1385H34.9006V20.2135H40.3544V7.62266L47.6934 6.00672V20.2135H54.8304V26.1385H47.6934V51.1182H40.3544V26.1385ZM60.5383 20.2135H67.81V26.2732C68.5281 24.2084 69.6952 22.5476 71.3111 21.2907C72.9271 20.0339 74.7674 19.4055 76.8322 19.4055C78.2686 19.4055 79.2561 19.5402 79.7948 19.8095L78.7848 27.1485C78.3808 26.8792 77.5055 26.7445 76.1589 26.7445C74.0492 26.7445 72.1191 27.4178 70.3685 28.7644C68.6628 30.111 67.81 32.2656 67.81 35.2282V51.1182H60.5383V20.2135ZM99.5479 51.7915C95.8671 51.7915 92.7924 51.0733 90.3236 49.6369C87.8548 48.1556 86.0369 46.203 84.8698 43.7791C83.7028 41.3104 83.1192 38.6171 83.1192 35.6995C83.1192 32.4227 83.7925 29.55 85.1391 27.0812C86.5306 24.6124 88.4383 22.7271 90.8622 21.4254C93.2861 20.0788 96.0242 19.4055 99.0766 19.4055C103.835 19.4055 107.358 20.7297 109.647 23.378C111.982 25.9814 113.149 29.6622 113.149 34.4202C113.149 35.6321 113.081 36.889 112.947 38.1907H90.7276C91.2213 40.9288 92.1864 42.9038 93.6228 44.1158C95.104 45.3277 97.1464 45.9337 99.7499 45.9337C101.904 45.9337 103.677 45.7542 105.069 45.3951C106.46 45.036 107.74 44.5422 108.907 43.9138L111.129 49.0982C110.007 49.8164 108.48 50.4449 106.55 50.9835C104.62 51.5221 102.286 51.7915 99.5479 51.7915ZM106.079 33.1409C106.124 30.3579 105.518 28.4053 104.261 27.2832C103.004 26.1161 101.209 25.5326 98.8746 25.5326C94.1614 25.5326 91.4458 28.0687 90.7276 33.1409H106.079ZM134.44 51.7915C131.657 51.7915 129.076 51.1406 126.697 49.8389C124.363 48.4923 122.478 46.607 121.042 44.1831C119.65 41.7143 118.954 38.8416 118.954 35.5648C118.954 32.333 119.56 29.5051 120.772 27.0812C122.029 24.6573 123.802 22.772 126.091 21.4254C128.381 20.0788 131.074 19.4055 134.171 19.4055C135.966 19.4055 137.65 19.7197 139.221 20.3481C140.792 20.9765 142.116 21.7621 143.193 22.7047C144.271 23.6024 144.989 24.5002 145.348 25.3979L145.483 20.2135H152.418V51.1182H145.55L145.415 45.6644C144.652 47.2803 143.261 48.7167 141.241 49.9735C139.221 51.1855 136.954 51.7915 134.44 51.7915ZM135.652 45.7317C138.211 45.7317 140.365 44.8564 142.116 43.1058C143.867 41.3104 144.742 38.9762 144.742 36.1035V35.6321C144.742 33.702 144.338 31.9739 143.53 30.4477C142.722 28.9215 141.622 27.732 140.231 26.8792C138.839 26.0263 137.313 25.5999 135.652 25.5999C132.78 25.5999 130.558 26.5425 128.987 28.4278C127.416 30.2682 126.63 32.6696 126.63 35.6321C126.63 38.6396 127.393 41.0859 128.919 42.9712C130.49 44.8115 132.735 45.7317 135.652 45.7317ZM162.196 20.2135H169.468V25.8019C170.455 23.6922 171.892 22.0987 173.777 21.0214C175.707 19.9441 177.907 19.4055 180.376 19.4055C185.897 19.4504 189.286 21.3581 190.542 25.1286C191.53 23.378 193.011 21.9865 194.986 20.9541C196.961 19.9217 199.049 19.4055 201.248 19.4055C204.48 19.4055 206.926 20.0339 208.587 21.2907C210.248 22.5027 211.348 24.2533 211.886 26.5425C212.47 28.7869 212.761 31.8168 212.761 35.6321V51.1182H205.422V35.5648C205.422 31.929 205.041 29.3255 204.278 27.7545C203.56 26.1834 202.146 25.3979 200.036 25.3979C197.208 25.3979 195.054 26.363 193.572 28.2931C192.136 30.1784 191.418 32.6696 191.418 35.7668V51.1182H184.146V34.4875C184.146 32.1085 184.056 30.3355 183.877 29.1684C183.697 28.0014 183.203 27.0812 182.395 26.4079C181.587 25.7346 180.286 25.3979 178.49 25.3979C176.919 25.3979 175.438 25.8692 174.046 26.8118C172.7 27.7545 171.6 29.0338 170.747 30.6497C169.939 32.2207 169.535 33.9264 169.535 35.7668V51.1182H162.196V20.2135ZM222.637 1.63024H229.841V51.1182H222.637V1.63024ZM240.586 20.2135H248.127V51.1182H240.586V20.2135ZM244.289 14.423C242.898 14.423 241.73 13.9517 240.788 13.0091C239.845 12.0665 239.374 10.8994 239.374 9.50791C239.374 8.25107 239.845 7.17379 240.788 6.27605C241.73 5.37831 242.898 4.92943 244.289 4.92943C245.636 4.92943 246.78 5.37831 247.723 6.27605C248.665 7.17379 249.137 8.25107 249.137 9.50791C249.137 10.8994 248.665 12.0665 247.723 13.0091C246.825 13.9517 245.681 14.423 244.289 14.423ZM258.195 20.2135H265.332L265.399 25.8692C266.252 23.984 267.599 22.4354 269.439 21.2234C271.279 20.0115 273.434 19.4055 275.903 19.4055C279.09 19.4055 281.536 20.0788 283.242 21.4254C284.947 22.7271 286.092 24.5675 286.676 26.9465C287.259 29.3255 287.551 32.4227 287.551 36.2381V51.1182H280.279V36.4401C280.279 32.5349 279.898 29.7295 279.135 28.0238C278.372 26.2732 276.8 25.3979 274.421 25.3979C273.075 25.3979 271.706 25.8243 270.314 26.6772C268.923 27.4852 267.756 28.6747 266.813 30.2457C265.915 31.8168 265.467 33.6571 265.467 35.7668V51.1182H258.195V20.2135ZM311.534 51.7915C307.853 51.7915 304.778 51.0733 302.309 49.6369C299.841 48.1556 298.023 46.203 296.856 43.7791C295.689 41.3104 295.105 38.6171 295.105 35.6995C295.105 32.4227 295.778 29.55 297.125 27.0812C298.517 24.6124 300.424 22.7271 302.848 21.4254C305.272 20.0788 308.01 19.4055 311.062 19.4055C315.82 19.4055 319.344 20.7297 321.633 23.378C323.967 25.9814 325.135 29.6622 325.135 34.4202C325.135 35.6321 325.067 36.889 324.933 38.1907H302.713C303.207 40.9288 304.172 42.9038 305.609 44.1158C307.09 45.3277 309.132 45.9337 311.736 45.9337C313.89 45.9337 315.663 45.7542 317.055 45.3951C318.446 45.036 319.726 44.5422 320.893 43.9138L323.115 49.0982C321.992 49.8164 320.466 50.4449 318.536 50.9835C316.606 51.5221 314.272 51.7915 311.534 51.7915ZM318.065 33.1409C318.11 30.3579 317.504 28.4053 316.247 27.2832C314.99 26.1161 313.195 25.5326 310.86 25.5326C306.147 25.5326 303.432 28.0687 302.713 33.1409H318.065ZM331.479 62.3624C333.274 58.5021 334.643 54.9336 335.586 51.6568C333.476 50.9835 332.421 49.4349 332.421 47.011C332.421 45.6195 332.87 44.4749 333.768 43.5771C334.711 42.6345 335.878 42.1632 337.269 42.1632C338.706 42.1632 339.85 42.7019 340.703 43.7791C341.556 44.8115 341.982 46.3153 341.982 48.2903C341.982 50.3102 341.354 52.5994 340.097 55.158C338.885 57.7166 337.471 60.118 335.855 62.3624H331.479ZM381.604 51.7915C378.821 51.7915 376.24 51.1406 373.861 49.8389C371.527 48.4923 369.641 46.607 368.205 44.1831C366.814 41.7143 366.118 38.8416 366.118 35.5648C366.118 32.333 366.724 29.5051 367.936 27.0812C369.193 24.6573 370.966 22.772 373.255 21.4254C375.544 20.0788 378.237 19.4055 381.334 19.4055C383.13 19.4055 384.813 19.7197 386.384 20.3481C387.955 20.9765 389.279 21.7621 390.357 22.7047C391.434 23.6024 392.152 24.5002 392.511 25.3979L392.646 20.2135H399.581V51.1182H392.713L392.579 45.6644C391.816 47.2803 390.424 48.7167 388.404 49.9735C386.384 51.1855 384.117 51.7915 381.604 51.7915ZM382.816 45.7317C385.374 45.7317 387.529 44.8564 389.279 43.1058C391.03 41.3104 391.905 38.9762 391.905 36.1035V35.6321C391.905 33.702 391.501 31.9739 390.693 30.4477C389.885 28.9215 388.786 27.732 387.394 26.8792C386.003 26.0263 384.477 25.5999 382.816 25.5999C379.943 25.5999 377.721 26.5425 376.15 28.4278C374.579 30.2682 373.793 32.6696 373.793 35.6321C373.793 38.6396 374.557 41.0859 376.083 42.9712C377.654 44.8115 379.898 45.7317 382.816 45.7317ZM409.36 20.2135H416.497L416.564 25.8692C417.417 23.984 418.764 22.4354 420.604 21.2234C422.444 20.0115 424.599 19.4055 427.068 19.4055C430.255 19.4055 432.701 20.0788 434.407 21.4254C436.112 22.7271 437.257 24.5675 437.841 26.9465C438.424 29.3255 438.716 32.4227 438.716 36.2381V51.1182H431.444V36.4401C431.444 32.5349 431.063 29.7295 430.3 28.0238C429.536 26.2732 427.965 25.3979 425.586 25.3979C424.24 25.3979 422.871 25.8243 421.479 26.6772C420.088 27.4852 418.921 28.6747 417.978 30.2457C417.08 31.8168 416.631 33.6571 416.631 35.7668V51.1182H409.36V20.2135ZM461.756 51.7915C458.973 51.7915 456.392 51.1406 454.013 49.8389C451.679 48.4923 449.794 46.607 448.357 44.1831C446.966 41.7143 446.27 38.8416 446.27 35.5648C446.27 32.333 446.876 29.5051 448.088 27.0812C449.345 24.6573 451.118 22.772 453.407 21.4254C455.696 20.0788 458.389 19.4055 461.487 19.4055C463.282 19.4055 464.965 19.7197 466.536 20.3481C468.108 20.9765 469.432 21.7621 470.509 22.7047C471.586 23.6024 472.304 24.5002 472.664 25.3979L472.798 20.2135H479.733V51.1182H472.866L472.731 45.6644C471.968 47.2803 470.576 48.7167 468.556 49.9735C466.536 51.1855 464.27 51.7915 461.756 51.7915ZM462.968 45.7317C465.527 45.7317 467.681 44.8564 469.432 43.1058C471.182 41.3104 472.058 38.9762 472.058 36.1035V35.6321C472.058 33.702 471.654 31.9739 470.846 30.4477C470.038 28.9215 468.938 27.732 467.546 26.8792C466.155 26.0263 464.629 25.5999 462.968 25.5999C460.095 25.5999 457.873 26.5425 456.302 28.4278C454.731 30.2682 453.946 32.6696 453.946 35.6321C453.946 38.6396 454.709 41.0859 456.235 42.9712C457.806 44.8115 460.05 45.7317 462.968 45.7317ZM490.118 1.63024H497.322V51.1182H490.118V1.63024ZM516.416 52.0608L503.623 20.2135H511.837L518.436 39.874L519.917 44.6544L521.398 39.874L528.333 20.2135H536.278L517.291 68.0855H509.75L516.416 52.0608ZM551.634 28.4278L553.318 26.0039L545.844 26.2059H540.525V20.2135H564.562L550.624 42.9712L548.941 45.5297L556.213 45.2604L564.023 45.1257V51.1182H537.562L551.634 28.4278ZM586.05 51.7915C582.37 51.7915 579.295 51.0733 576.826 49.6369C574.357 48.1556 572.539 46.203 571.372 43.7791C570.205 41.3104 569.622 38.6171 569.622 35.6995C569.622 32.4227 570.295 29.55 571.642 27.0812C573.033 24.6124 574.941 22.7271 577.365 21.4254C579.789 20.0788 582.527 19.4055 585.579 19.4055C590.337 19.4055 593.861 20.7297 596.15 23.378C598.484 25.9814 599.651 29.6622 599.651 34.4202C599.651 35.6321 599.584 36.889 599.449 38.1907H577.23C577.724 40.9288 578.689 42.9038 580.125 44.1158C581.606 45.3277 583.649 45.9337 586.252 45.9337C588.407 45.9337 590.18 45.7542 591.571 45.3951C592.963 45.036 594.242 44.5422 595.409 43.9138L597.631 49.0982C596.509 49.8164 594.983 50.4449 593.053 50.9835C591.122 51.5221 588.788 51.7915 586.05 51.7915ZM592.581 33.1409C592.626 30.3579 592.02 28.4053 590.763 27.2832C589.507 26.1161 587.711 25.5326 585.377 25.5326C580.664 25.5326 577.948 28.0687 577.23 33.1409H592.581ZM122.835 115.791C120.052 115.791 117.471 115.141 115.092 113.839C112.758 112.492 110.873 110.607 109.436 108.183C108.045 105.714 107.349 102.842 107.349 99.5648C107.349 96.333 107.955 93.5051 109.167 91.0812C110.424 88.6573 112.197 86.772 114.486 85.4254C116.775 84.0788 119.469 83.4055 122.566 83.4055C124.361 83.4055 126.044 83.7197 127.616 84.3481C129.187 84.9765 130.511 85.7621 131.588 86.7047C132.665 87.6024 133.383 88.5002 133.743 89.3979L133.877 84.2135H140.812V115.118H133.945L133.81 109.664C133.047 111.28 131.655 112.717 129.635 113.974C127.616 115.185 125.349 115.791 122.835 115.791ZM124.047 109.732C126.606 109.732 128.76 108.856 130.511 107.106C132.261 105.31 133.137 102.976 133.137 100.103V99.6321C133.137 97.702 132.733 95.9739 131.925 94.4477C131.117 92.9215 130.017 91.732 128.625 90.8792C127.234 90.0263 125.708 89.5999 124.047 89.5999C121.174 89.5999 118.952 90.5425 117.381 92.4278C115.81 94.2682 115.025 96.6696 115.025 99.6321C115.025 102.64 115.788 105.086 117.314 106.971C118.885 108.812 121.129 109.732 124.047 109.732ZM150.591 84.2135H157.728L157.795 89.8692C158.648 87.984 159.995 86.4354 161.835 85.2234C163.676 84.0115 165.83 83.4055 168.299 83.4055C171.486 83.4055 173.932 84.0788 175.638 85.4254C177.344 86.7271 178.488 88.5675 179.072 90.9465C179.655 93.3255 179.947 96.4227 179.947 100.238V115.118H172.675V100.44C172.675 96.5349 172.294 93.7295 171.531 92.0238C170.768 90.2732 169.197 89.3979 166.818 89.3979C165.471 89.3979 164.102 89.8243 162.71 90.6772C161.319 91.4852 160.152 92.6747 159.209 94.2457C158.312 95.8168 157.863 97.6571 157.863 99.7668V115.118H150.591V84.2135ZM202.987 115.791C200.204 115.791 197.623 115.141 195.244 113.839C192.91 112.492 191.025 110.607 189.588 108.183C188.197 105.714 187.501 102.842 187.501 99.5648C187.501 94.6721 188.87 90.767 191.608 87.8493C194.347 84.8868 198.05 83.4055 202.718 83.4055C205.321 83.4055 207.7 84.0564 209.855 85.3581C212.01 86.6149 213.468 88.1411 214.231 89.9366L213.895 84.6848V65.6302H221.032V115.118H214.097L213.962 109.664C213.199 111.28 211.808 112.717 209.788 113.974C207.768 115.185 205.501 115.791 202.987 115.791ZM204.199 109.664C206.758 109.664 208.912 108.789 210.663 107.039C212.414 105.243 213.289 102.909 213.289 100.036V99.5648C213.289 97.6347 212.885 95.9065 212.077 94.3804C211.269 92.8542 210.169 91.6647 208.778 90.8118C207.386 89.959 205.86 89.5326 204.199 89.5326C201.326 89.5326 199.105 90.4752 197.533 92.3605C195.962 94.2008 195.177 96.6023 195.177 99.5648C195.177 102.572 195.94 105.019 197.466 106.904C199.037 108.744 201.282 109.664 204.199 109.664ZM261.792 115.791C258.111 115.791 255.037 115.073 252.568 113.637C250.099 112.156 248.281 110.203 247.114 107.779C245.947 105.31 245.363 102.617 245.363 99.6995C245.363 96.4227 246.037 93.55 247.383 91.0812C248.775 88.6124 250.683 86.7271 253.106 85.4254C255.53 84.0788 258.268 83.4055 261.321 83.4055C266.079 83.4055 269.602 84.7297 271.892 87.378C274.226 89.9814 275.393 93.6622 275.393 98.4202C275.393 99.6321 275.325 100.889 275.191 102.191H252.972C253.466 104.929 254.431 106.904 255.867 108.116C257.348 109.328 259.391 109.934 261.994 109.934C264.149 109.934 265.922 109.754 267.313 109.395C268.705 109.036 269.984 108.542 271.151 107.914L273.373 113.098C272.251 113.816 270.725 114.445 268.794 114.984C266.864 115.522 264.53 115.791 261.792 115.791ZM268.323 97.1409C268.368 94.3579 267.762 92.4053 266.505 91.2832C265.248 90.1161 263.453 89.5326 261.119 89.5326C256.406 89.5326 253.69 92.0687 252.972 97.1409H268.323ZM283.016 84.2135H290.153L290.221 89.8692C291.074 87.984 292.42 86.4354 294.261 85.2234C296.101 84.0115 298.256 83.4055 300.724 83.4055C303.911 83.4055 306.358 84.0788 308.063 85.4254C309.769 86.7271 310.914 88.5675 311.497 90.9465C312.081 93.3255 312.373 96.4227 312.373 100.238V115.118H305.101V100.44C305.101 96.5349 304.719 93.7295 303.956 92.0238C303.193 90.2732 301.622 89.3979 299.243 89.3979C297.896 89.3979 296.527 89.8243 295.136 90.6772C293.744 91.4852 292.577 92.6747 291.635 94.2457C290.737 95.8168 290.288 97.6571 290.288 99.7668V115.118H283.016V84.2135ZM336.759 131.277C334.47 131.277 332.203 130.963 329.959 130.335C327.759 129.706 326.188 129.123 325.246 128.584L326.862 121.851C329.824 123.781 333.056 124.746 336.557 124.746C339.251 124.746 341.517 124.096 343.358 122.794C345.198 121.492 346.141 118.956 346.186 115.185V109.664C345.243 111.415 343.717 112.874 341.607 114.041C339.497 115.208 337.163 115.791 334.605 115.791C331.912 115.791 329.443 115.141 327.198 113.839C324.954 112.492 323.181 110.585 321.879 108.116C320.578 105.647 319.927 102.774 319.927 99.4975C319.927 96.3554 320.533 93.5724 321.745 91.1485C323.001 88.6797 324.774 86.772 327.064 85.4254C329.353 84.0788 332.024 83.4055 335.076 83.4055C336.872 83.4055 338.555 83.7197 340.126 84.3481C341.697 84.9765 343.021 85.7621 344.098 86.7047C345.221 87.6024 345.961 88.5002 346.32 89.3979L346.455 84.2135H353.323V114.916C353.323 120.168 351.976 124.208 349.283 127.036C346.59 129.864 342.415 131.277 336.759 131.277ZM336.625 109.664C339.183 109.664 341.338 108.789 343.088 107.039C344.839 105.243 345.714 102.909 345.714 100.036V99.5648C345.714 97.6347 345.31 95.9065 344.502 94.3804C343.694 92.8542 342.595 91.6647 341.203 90.8118C339.812 89.959 338.285 89.5326 336.625 89.5326C333.752 89.5326 331.53 90.4752 329.959 92.3605C328.388 94.2008 327.602 96.6023 327.602 99.5648C327.602 102.572 328.365 105.019 329.892 106.904C331.463 108.744 333.707 109.664 336.625 109.664ZM376.311 115.791C373.528 115.791 370.947 115.141 368.568 113.839C366.234 112.492 364.348 110.607 362.912 108.183C361.52 105.714 360.825 102.842 360.825 99.5648C360.825 96.333 361.431 93.5051 362.643 91.0812C363.899 88.6573 365.672 86.772 367.962 85.4254C370.251 84.0788 372.944 83.4055 376.041 83.4055C377.837 83.4055 379.52 83.7197 381.091 84.3481C382.662 84.9765 383.986 85.7621 385.064 86.7047C386.141 87.6024 386.859 88.5002 387.218 89.3979L387.353 84.2135H394.288V115.118H387.42L387.286 109.664C386.523 111.28 385.131 112.717 383.111 113.974C381.091 115.185 378.824 115.791 376.311 115.791ZM377.523 109.732C380.081 109.732 382.236 108.856 383.986 107.106C385.737 105.31 386.612 102.976 386.612 100.103V99.6321C386.612 97.702 386.208 95.9739 385.4 94.4477C384.592 92.9215 383.493 91.732 382.101 90.8792C380.71 90.0263 379.183 89.5999 377.523 89.5999C374.65 89.5999 372.428 90.5425 370.857 92.4278C369.286 94.2682 368.5 96.6696 368.5 99.6321C368.5 102.64 369.263 105.086 370.79 106.971C372.361 108.812 374.605 109.732 377.523 109.732ZM419.081 131.277C416.792 131.277 414.525 130.963 412.281 130.335C410.082 129.706 408.51 129.123 407.568 128.584L409.184 121.851C412.146 123.781 415.378 124.746 418.879 124.746C421.573 124.746 423.839 124.096 425.68 122.794C427.52 121.492 428.463 118.956 428.508 115.185V109.664C427.565 111.415 426.039 112.874 423.929 114.041C421.819 115.208 419.485 115.791 416.927 115.791C414.234 115.791 411.765 115.141 409.52 113.839C407.276 112.492 405.503 110.585 404.201 108.116C402.9 105.647 402.249 102.774 402.249 99.4975C402.249 96.3554 402.855 93.5724 404.067 91.1485C405.323 88.6797 407.097 86.772 409.386 85.4254C411.675 84.0788 414.346 83.4055 417.398 83.4055C419.194 83.4055 420.877 83.7197 422.448 84.3481C424.019 84.9765 425.343 85.7621 426.42 86.7047C427.543 87.6024 428.283 88.5002 428.642 89.3979L428.777 84.2135H435.645V114.916C435.645 120.168 434.298 124.208 431.605 127.036C428.912 129.864 424.737 131.277 419.081 131.277ZM418.947 109.664C421.505 109.664 423.66 108.789 425.41 107.039C427.161 105.243 428.036 102.909 428.036 100.036V99.5648C428.036 97.6347 427.632 95.9065 426.824 94.3804C426.016 92.8542 424.917 91.6647 423.525 90.8118C422.134 89.959 420.608 89.5326 418.947 89.5326C416.074 89.5326 413.852 90.4752 412.281 92.3605C410.71 94.2008 409.924 96.6023 409.924 99.5648C409.924 102.572 410.687 105.019 412.214 106.904C413.785 108.744 416.029 109.664 418.947 109.664ZM459.575 115.791C455.895 115.791 452.82 115.073 450.351 113.637C447.882 112.156 446.064 110.203 444.897 107.779C443.73 105.31 443.147 102.617 443.147 99.6995C443.147 96.4227 443.82 93.55 445.167 91.0812C446.558 88.6124 448.466 86.7271 450.89 85.4254C453.314 84.0788 456.052 83.4055 459.104 83.4055C463.862 83.4055 467.386 84.7297 469.675 87.378C472.009 89.9814 473.176 93.6622 473.176 98.4202C473.176 99.6321 473.109 100.889 472.974 102.191H450.755C451.249 104.929 452.214 106.904 453.65 108.116C455.132 109.328 457.174 109.934 459.777 109.934C461.932 109.934 463.705 109.754 465.096 109.395C466.488 109.036 467.767 108.542 468.934 107.914L471.156 113.098C470.034 113.816 468.508 114.445 466.578 114.984C464.648 115.522 462.313 115.791 459.575 115.791ZM466.106 97.1409C466.151 94.3579 465.545 92.4053 464.289 91.2832C463.032 90.1161 461.236 89.5326 458.902 89.5326C454.189 89.5326 451.473 92.0687 450.755 97.1409H466.106ZM485.782 115.791C484.436 115.791 483.291 115.343 482.348 114.445C481.406 113.502 480.934 112.358 480.934 111.011C480.934 109.62 481.383 108.475 482.281 107.577C483.224 106.635 484.391 106.163 485.782 106.163C487.174 106.163 488.318 106.635 489.216 107.577C490.159 108.475 490.63 109.62 490.63 111.011C490.63 112.358 490.159 113.502 489.216 114.445C488.318 115.343 487.174 115.791 485.782 115.791Z" fill="url(#paint0_linear_2_19)"/>
<defs>
<linearGradient id="paint0_linear_2_19" x1="-63.7869" y1="93.1722" x2="663.787" y2="93.1722" gradientUnits="userSpaceOnUse">
<stop stop-color="#C729FF"/>
<stop offset="0.447917" stop-color="#4C83F4"/>
<stop offset="1" stop-color="#1BE1FC"/>
</linearGradient>
</defs>
</svg>
