<svg xmlns="http://www.w3.org/2000/svg" width="70" height="71" viewBox="0 0 70 71" fill="none">
    <path
        d="M15.3125 33.3125H59.0625C59.6427 33.3125 60.1991 33.543 60.6093 33.9532C61.0195 34.3634 61.25 34.9198 61.25 35.5C61.25 36.0802 61.0195 36.6366 60.6093 37.0468C60.1991 37.457 59.6427 37.6875 59.0625 37.6875H15.3125C14.7323 37.6875 14.1759 37.457 13.7657 37.0468C13.3555 36.6366 13.125 36.0802 13.125 35.5C13.125 34.9198 13.3555 34.3634 13.7657 33.9532C14.1759 33.543 14.7323 33.3125 15.3125 33.3125Z"
        fill="#386FA4" />
    <path
        d="M16.2181 35.5L34.3613 53.6387C34.772 54.0495 35.0028 54.6066 35.0028 55.1875C35.0028 55.7684 34.772 56.3255 34.3613 56.7363C33.9505 57.147 33.3934 57.3778 32.8125 57.3778C32.2316 57.3778 31.6745 57.147 31.2638 56.7363L11.5763 37.0487C11.3725 36.8456 11.2109 36.6042 11.1006 36.3384C10.9904 36.0726 10.9336 35.7877 10.9336 35.5C10.9336 35.2123 10.9904 34.9274 11.1006 34.6616C11.2109 34.3958 11.3725 34.1544 11.5763 33.9513L31.2638 14.2638C31.6745 13.853 32.2316 13.6222 32.8125 13.6222C33.3934 13.6222 33.9505 13.853 34.3613 14.2638C34.772 14.6745 35.0028 15.2316 35.0028 15.8125C35.0028 16.3934 34.772 16.9505 34.3613 17.3613L16.2181 35.5Z"
        fill="#386FA4" />
</svg>