<svg width="22" height="24" viewBox="0 0 22 24" fill="none" xmlns="http://www.w3.org/2000/svg">
<path d="M16.2799 19.5782C16.2799 20.357 16.0049 21.1038 15.5155 21.6545C15.026 22.2051 14.3621 22.5145 13.6699 22.5145H4.53493C3.84271 22.5145 3.17885 22.2051 2.68938 21.6545C2.19991 21.1038 1.92493 20.357 1.92493 19.5782V9.30136C1.92493 8.52262 2.19991 7.77577 2.68938 7.22512C3.17885 6.67447 3.84271 6.36511 4.53493 6.36511V7.83324C4.18882 7.83324 3.85689 7.98791 3.61215 8.26324C3.36742 8.53857 3.22993 8.91199 3.22993 9.30136V19.5782C3.22993 19.9676 3.36742 20.341 3.61215 20.6164C3.85689 20.8917 4.18882 21.0464 4.53493 21.0464H13.6699C14.016 21.0464 14.348 20.8917 14.5927 20.6164C14.8374 20.341 14.9749 19.9676 14.9749 19.5782H16.2799Z" fill="#84D2F6"/>
<path d="M8.44997 3.42886C8.10386 3.42886 7.77193 3.58354 7.52719 3.85887C7.28246 4.13419 7.14497 4.50762 7.14497 4.89699V15.1739C7.14497 15.5632 7.28246 15.9367 7.52719 16.212C7.77193 16.4873 8.10386 16.642 8.44997 16.642H17.585C17.9311 16.642 18.263 16.4873 18.5077 16.212C18.7525 15.9367 18.89 15.5632 18.89 15.1739V4.89699C18.89 4.50762 18.7525 4.13419 18.5077 3.85887C18.263 3.58354 17.9311 3.42886 17.585 3.42886H8.44997ZM8.44997 1.96074H17.585C18.2772 1.96074 18.941 2.27009 19.4305 2.82075C19.92 3.3714 20.195 4.11825 20.195 4.89699V15.1739C20.195 15.9526 19.92 16.6995 19.4305 17.2501C18.941 17.8008 18.2772 18.1101 17.585 18.1101H8.44997C7.75775 18.1101 7.09389 17.8008 6.60442 17.2501C6.11495 16.6995 5.83997 15.9526 5.83997 15.1739V4.89699C5.83997 4.11825 6.11495 3.3714 6.60442 2.82075C7.09389 2.27009 7.75775 1.96074 8.44997 1.96074Z" fill="#84D2F6"/>
</svg>
