<svg width="35" height="31" viewBox="0 0 35 31" fill="none" xmlns="http://www.w3.org/2000/svg">
    <path
        d="M15.1002 16.0966L25.9528 2.17959C25.9528 2.17957 25.9529 2.17954 25.9529 2.17952C26.795 1.09922 28.358 0.901012 29.4383 1.7443C29.4383 1.74434 29.4384 1.74439 29.4384 1.74444L33.4254 4.85397C33.9481 5.26113 34.2818 5.85012 34.362 6.50822M15.1002 16.0966L33.914 6.56282M15.1002 16.0966L8.097 10.6353C7.01825 9.79406 5.45811 9.98933 4.61702 11.067L4.6169 11.0671L1.50737 15.0547M15.1002 16.0966L1.86312 15.3324M34.362 6.50822L33.914 6.56282M34.362 6.50822C34.362 6.50813 34.362 6.50804 34.362 6.50795L33.914 6.56282M34.362 6.50822C34.4424 7.16567 34.2607 7.81757 33.8529 8.34042M33.914 6.56282C33.9799 7.10113 33.8317 7.63371 33.497 8.06286M33.8529 8.34042L33.8529 8.3404L33.497 8.06286M33.8529 8.34042L17.6213 29.1544C17.4296 29.4001 17.1557 29.5452 16.8696 29.5806C16.8354 29.5849 16.8017 29.5874 16.7686 29.5884M33.8529 8.34042L33.497 8.06286M33.497 8.06286L16.7686 29.5884M16.7686 29.5884C16.7905 29.5838 16.8123 29.5784 16.8339 29.5724L16.7134 29.1375L16.7023 29.5887C16.7242 29.5892 16.7463 29.5892 16.7686 29.5884ZM16.7686 29.5884C16.4545 29.6557 16.1122 29.5896 15.837 29.3751L1.93639 18.5353L2.19788 18.2L1.93639 18.5353C1.41453 18.1283 1.08201 17.5395 1.00143 16.8817L1.00139 16.8814C0.921543 16.2255 1.10103 15.5753 1.50737 15.0547M16.7686 29.5884L2.21392 18.1794C1.78696 17.8464 1.51545 17.3661 1.44939 16.8268C1.38391 16.289 1.53063 15.7584 1.86312 15.3324M1.50737 15.0547L1.50723 15.0549L1.86312 15.3324M1.50737 15.0547L1.86312 15.3324M32.0723 6.95152L32.0723 6.95143C32.1121 6.90049 32.1278 6.84156 32.1206 6.7818L32.0723 6.95152ZM32.0723 6.95152L16.4475 26.9877L3.32493 16.7547C3.27991 16.7196 3.25062 16.6695 3.24286 16.6076C3.23556 16.5468 3.25165 16.4899 3.288 16.443C3.28805 16.4429 3.28811 16.4429 3.28817 16.4428L6.39743 12.4557L6.39757 12.4556M32.0723 6.95152L6.39757 12.4556M6.39757 12.4556C6.43506 12.4074 6.4881 12.3789 6.54633 12.3717C6.6038 12.3646 6.66149 12.3793 6.70845 12.4159L6.98598 12.06M6.39757 12.4556L6.98598 12.06M6.98598 12.06L6.70846 12.4159L14.602 18.5713C15.082 18.9456 15.8122 18.8553 16.1865 18.3753L15.8306 18.0978M6.98598 12.06L15.8306 18.0978M15.8306 18.0978L16.1865 18.3753L27.7329 3.5686C27.733 3.56852 27.7331 3.56844 27.7331 3.56835C27.8137 3.4657 27.9567 3.45219 28.0496 3.52466L28.0497 3.52477M15.8306 18.0978L28.0497 3.52477M28.0497 3.52477L32.0372 6.63494L32.0377 6.63532M28.0497 3.52477L32.0377 6.63532M32.0377 6.63532C32.0846 6.67183 32.1133 6.72236 32.1205 6.78165L32.0377 6.63532Z"
        fill="#2F3E46" stroke="#2F3E46" stroke-width="0.902611" />
</svg>