<svg width="24" height="24" viewBox="0 0 24 24" fill="none" xmlns="http://www.w3.org/2000/svg">
    <path
        d="M2.9506 2.89116L2.94942 2.89234C2.50847 3.33383 2.2608 3.93229 2.2608 4.55626C2.2608 5.18023 2.50847 5.77869 2.94942 6.22018L2.95001 6.22078L9.02206 12.2928L2.95001 18.3649L2.93322 18.3817L2.91704 18.399C2.50112 18.8454 2.27469 19.4358 2.28545 20.0458C2.29622 20.6558 2.54333 21.2378 2.97474 21.6692C3.40614 22.1006 3.98815 22.3477 4.59816 22.3585C5.20815 22.3692 5.79852 22.1428 6.24488 21.7269L6.26225 21.7107L6.27904 21.6939L12.3511 15.6219L18.4099 21.6806C18.6215 21.9023 18.8744 22.0805 19.1545 22.2053C19.4433 22.334 19.7551 22.4032 20.0713 22.4088C20.3874 22.4144 20.7015 22.3562 20.9947 22.2378C21.2879 22.1194 21.5542 21.9431 21.7778 21.7195C22.0014 21.4959 22.1776 21.2296 22.2961 20.9364C22.4145 20.6432 22.4726 20.3292 22.4671 20.013C22.4615 19.6969 22.3923 19.3851 22.2636 19.0962C22.1388 18.8162 21.9605 18.5632 21.7389 18.3516L15.6801 12.2928L21.7389 6.23405C21.9605 6.02242 22.1388 5.76949 22.2636 5.4894C22.3923 5.20057 22.4615 4.88877 22.4671 4.57263C22.4726 4.25648 22.4145 3.94244 22.2961 3.64924C22.1776 3.35605 22.0014 3.08972 21.7778 2.86613C21.5542 2.64254 21.2879 2.46628 20.9947 2.34785C20.7015 2.22943 20.3874 2.17127 20.0713 2.17685C19.7551 2.18243 19.4433 2.25163 19.1545 2.38032C18.8744 2.50512 18.6215 2.68338 18.4099 2.90501L12.3511 8.9638L6.27904 2.89175L6.27844 2.89116C5.83695 2.45021 5.23849 2.20254 4.61452 2.20254C3.99055 2.20254 3.39209 2.45021 2.9506 2.89116Z"
        stroke="#930202" stroke-width="2.69098" />
</svg>